<svg xmlns="http://www.w3.org/2000/svg" viewBox="0 0 461.7 380"><path d="M-624.1-158.3c-9-3.4-13.6-13.5-10.3-22.5l72.7-194.6c3.4-9 13.5-13.6 22.5-10.3 9 3.4 13.6 13.5 10.3 22.5l-72.7 194.6c-3.4 9-13.5 13.6-22.5 10.3zM-659.6-213.3l-69.8-66.2 69.8-66.2c6.7-6.4 7-17.1.6-23.9l-.8-.9c-6.4-6.7-17.1-7-23.9-.6l-83.2 78.9c-3.6 3.4-5.4 8.1-5.2 12.7-.1 4.6 1.6 9.3 5.2 12.7l83.2 78.9c6.7 6.4 17.5 6.1 23.9-.6l.8-.9c6.5-6.8 6.2-17.5-.6-23.9zM-500.7-213.3l69.8-66.2-69.8-66.2c-6.7-6.4-7-17.1-.6-23.9l.8-.9c6.4-6.7 17.1-7 23.9-.6l83.2 78.9c3.6 3.4 5.4 8.1 5.2 12.7.1 4.6-1.6 9.3-5.2 12.7l-83.2 78.9c-6.7 6.4-17.5 6.1-23.9-.6l-.8-.9c-6.5-6.8-6.2-17.5.6-23.9z"/><path d="M7.3 31C7.3 18 18 7.3 31 7.3h399.7c13 0 23.7 10.7 23.7 23.7s-10.7 23.7-23.7 23.7H31C18 54.7 7.3 44 7.3 31zM5.4 351.2c0-13 10.7-23.7 23.7-23.7h176.2c13 0 23.7 10.7 23.7 23.7s-10.7 23.7-23.7 23.7H29.1c-13-.1-23.7-10.7-23.7-23.7zM6.4 191.1c0-13 10.7-23.7 23.7-23.7h263.5c13 0 23.7 10.7 23.7 23.7s-10.7 23.7-23.7 23.7H30c-13 0-23.6-10.7-23.6-23.7z" fill="currentColor"/></svg>