<?xml version="1.0" encoding="utf-8"?>
<!-- Generator: Adobe Illustrator 22.1.0, SVG Export Plug-In . SVG Version: 6.00 Build 0)  -->
<svg version="1.1" id="Layer_1" xmlns="http://www.w3.org/2000/svg" xmlns:xlink="http://www.w3.org/1999/xlink" x="0px" y="0px"
	 viewBox="0 0 682.4 214" style="enable-background:new 0 0 682.4 214;" xml:space="preserve">
<style type="text/css">
	.st0{fill:none;}
	.st1{fill:#49C8F5;}
	.st2{fill:#FFFFFF;}
</style>
<path class="st0" d="M175.2,76.1c-0.3-12.8-9.8-20.8-23.7-25.8v51.1C174.3,93.7,175.3,80.2,175.2,76.1z"/>
<g>
	<path class="st1" d="M151.4,0h-26.6v19.4c9.4,1.5,18.4,3.6,26.6,6.3V0z"/>
	<path class="st1" d="M196.5,146c-2.5-4.2-5.7-7.2-9.8-9.2c-4.1-2-8.7-2.9-13.8-2.9c-3,0-5.9,0.4-8.4,1.1c-2.6,0.7-4.9,1.9-7.1,3.4
		c-2.1,1.6-4,3.7-5.7,6.4h-1.2c0.2-2,0.5-5,0.7-8.9c0.1-2.2,0.2-4.7,0.3-7.4c0-2.2,0.1-4.5,0.1-7v-20.1V50.3
		c-7.8-2.8-17-4.5-26.6-5.6v62v29.5v76.1h26.6v-33.9c0-5.1,0.4-9.4,1.2-12.9c0.8-3.5,2.1-6.2,3.9-8c1.9-1.8,4.4-2.8,7.6-2.8
		c3.1,0,5.4,1.3,6.9,3.9c1.5,2.6,2.2,6.5,2.2,11.6v42.1h26.8v-50.2C200.1,155.5,198.9,150.1,196.5,146z"/>
</g>
<g>
	<path class="st2" d="M151.4,25.7c-8.3-2.7-17.3-4.8-26.6-6.3C68.9,10.3,0,19.7,0,19.7L42.3,47c0,0,44.9-6.4,82.5-2.2
		c9.7,1.1,18.8,2.8,26.6,5.6c13.9,4.9,23.5,13,23.7,25.8c0.1,4.1-0.9,17.6-23.7,25.3v20.1c0,2.5,0,4.8-0.1,7
		c3.9-1.6,7.7-3.4,11.4-5.5c27.2-15.4,30.2-32.2,31.6-40C199.8,52.3,180.1,35.1,151.4,25.7z"/>
	<path class="st2" d="M42.3,106.9v105.7h26.8l11.2-72.4c0,0,20.7,0.8,44.5-4v-29.5C87.1,111.2,42.3,106.9,42.3,106.9z"/>
</g>
<path class="st2" d="M262.6,134.1c9.8,0,17.4,2.4,22.9,7.3c5.5,4.8,8.2,11.7,8.2,20.7v50.6h-18.5l-5.1-10.2h-0.5
	c-2.2,2.7-4.4,4.9-6.7,6.6c-2.3,1.7-4.9,3-7.9,3.7c-3,0.8-6.6,1.2-10.8,1.2c-4.5,0-8.4-0.9-12-2.7c-3.5-1.8-6.3-4.6-8.4-8.2
	c-2-3.7-3.1-8.3-3.1-14c0-8.3,2.9-14.4,8.6-18.4c5.7-4,14-6.2,24.9-6.7l12.9-0.4v-1.1c0-3.4-0.9-5.9-2.6-7.4c-1.7-1.5-4-2.2-6.8-2.2
	c-3,0-6.4,0.5-10.2,1.6c-3.7,1.1-7.5,2.4-11.3,4.1l-7.7-17.6c4.4-2.3,9.5-4,15.1-5.2C249.3,134.7,255.6,134.1,262.6,134.1z
	 M267.2,178.2l-6.1,0.3c-4.9,0.2-8.3,1-10.3,2.6c-2,1.5-3,3.7-3,6.5c0,2.6,0.7,4.6,2.1,5.8c1.4,1.2,3.3,1.9,5.6,1.9
	c3.2,0,6-1,8.3-3.1c2.3-2,3.4-4.7,3.4-8V178.2z"/>
<path class="st2" d="M366.8,134.1c7.9,0,14.4,2.2,19.5,6.7c5,4.5,7.6,11.7,7.6,21.6v50.2h-26.6v-42.1c0-5.1-0.7-9-2.2-11.6
	c-1.5-2.6-3.8-3.9-7.1-3.9c-5,0-8.4,2.1-10.1,6.2c-1.7,4.1-2.6,10-2.6,17.7v33.8h-26.6v-77.2h20.1l3.6,10.2h1
	c1.6-2.5,3.6-4.5,5.9-6.3c2.3-1.7,4.9-3,7.8-4C359.9,134.6,363.2,134.1,366.8,134.1z"/>
<path class="st2" d="M456.4,193c2.4,0,4.6-0.2,6.6-0.7c2-0.5,4.1-1.1,6.3-1.9v19.4c-2.9,1.3-6,2.3-9.2,3.1
	c-3.2,0.8-7.4,1.2-12.4,1.2c-5,0-9.4-0.8-13.2-2.3c-3.8-1.6-6.8-4.3-8.9-8.2c-2.1-3.9-3.2-9.3-3.2-16.2v-31.8H413v-10.8l11.9-8.4
	l6.9-16.2h17.4v15.5h18.9v20h-18.9v30c0,2.5,0.6,4.4,1.9,5.6C452.4,192.3,454.1,193,456.4,193z"/>
<path class="st2" d="M563.1,173.7c0,6.4-0.9,12.2-2.7,17.2c-1.8,5-4.3,9.2-7.7,12.6c-3.4,3.4-7.4,6-12.2,7.7
	c-4.8,1.7-10.1,2.6-16.1,2.6c-5.6,0-10.7-0.9-15.4-2.6c-4.7-1.7-8.7-4.3-12.2-7.7c-3.5-3.4-6.1-7.6-8-12.6c-1.9-5-2.8-10.7-2.8-17.2
	c0-8.5,1.6-15.8,4.7-21.7c3.1-5.9,7.6-10.4,13.3-13.5c5.8-3.1,12.7-4.6,20.7-4.6c7.4,0,14,1.5,19.8,4.6c5.8,3.1,10.3,7.6,13.6,13.5
	C561.5,157.9,563.1,165.1,563.1,173.7z M513.1,173.7c0,4.4,0.4,8.1,1.2,11.1c0.8,3,2,5.3,3.7,6.9c1.7,1.6,3.9,2.3,6.7,2.3
	s5-0.8,6.6-2.3c1.6-1.6,2.8-3.9,3.6-6.9c0.7-3,1.1-6.7,1.1-11.1c0-4.4-0.4-8.1-1.1-11c-0.7-3-2-5.2-3.6-6.7
	c-1.7-1.5-3.9-2.2-6.7-2.2c-4,0-7,1.7-8.8,5C514,162.1,513.1,167.1,513.1,173.7z"/>
<polygon class="st1" points="626,149.4 680.8,86.7 648.3,86.7 609.3,130.6 602.3,122.7 590.8,109.8 570.2,86.7 537.7,86.7 
	569,122.5 583.3,138.8 592.5,149.4 536.1,212.6 570.7,212.6 609.3,168.5 647.8,212.6 682.4,212.6 "/>
</svg>
